<svg xmlns="http://www.w3.org/2000/svg" width="389.594" height="181.001" viewBox="0 0 389.594 181.001">
  <g id="_47637068_7337298" data-name="47637068_7337298" transform="translate(-65.502 -140.599)">
    <g id="CUSTOM-group">
      <g id="Grupo_3" data-name="Grupo 3">
        <g id="Grupo_2" data-name="Grupo 2">
          <rect id="Rectángulo_3" data-name="Rectángulo 3" width="10.605" height="21.917" transform="translate(155.998 183.02)" fill="#82954b"/>
        </g>
      </g>
      <g id="Grupo_5" data-name="Grupo 5">
        <g id="Grupo_4" data-name="Grupo 4">
          <path id="Trazado_4" data-name="Trazado 4" d="M191.563,160.257l-8.444-8.444a5.327,5.327,0,0,0-1.378-.994l-18.069-9.66a5.306,5.306,0,0,0-4.743,0l-18.069,9.66a5.28,5.28,0,0,0-1.378.994l-8.444,8.444a5.3,5.3,0,0,0-1.553,3.749v40.931h15.908v-27.22a5.3,5.3,0,0,1,5.3-5.3H171.9a5.3,5.3,0,0,1,5.3,5.3v27.22h15.908V164.006A5.3,5.3,0,0,0,191.563,160.257Z" fill="#82954b"/>
        </g>
      </g>
      <g id="Grupo_7" data-name="Grupo 7">
        <g id="Grupo_6" data-name="Grupo 6">
          <path id="Trazado_5" data-name="Trazado 5" d="M65.5,257.962v10.6h88.3l10.605-10.6Z" fill="#82954b"/>
        </g>
      </g>
      <g id="Grupo_10" data-name="Grupo 10">
        <g id="Grupo_9" data-name="Grupo 9">
          <g id="Grupo_8" data-name="Grupo 8">
            <path id="Trazado_6" data-name="Trazado 6" d="M115.42,321.592h0C115.41,321.6,115.413,321.6,115.42,321.592Z" fill="#82954b"/>
            <path id="Trazado_7" data-name="Trazado 7" d="M239,215.542H221.824c-1.054,1.054-105.536,105.189-106.4,106.05h17.172Z" fill="#82954b"/>
          </g>
        </g>
      </g>
      <g id="Grupo_12" data-name="Grupo 12">
        <g id="Grupo_11" data-name="Grupo 11">
          <path id="Trazado_8" data-name="Trazado 8" d="M179.4,321.592h16.819l50.271-49.918V254.855Z" fill="#82954b"/>
        </g>
      </g>
      <g id="Grupo_14" data-name="Grupo 14">
        <g id="Grupo_13" data-name="Grupo 13">
          <path id="Trazado_9" data-name="Trazado 9" d="M147.589,321.592h16.819l82.086-81.733V223.04Z" fill="#82954b"/>
        </g>
      </g>
      <g id="Grupo_16" data-name="Grupo 16">
        <g id="Grupo_15" data-name="Grupo 15">
          <path id="Trazado_10" data-name="Trazado 10" d="M65.5,236.752v10.6H175.013l10.6-10.6Z" fill="#82954b"/>
        </g>
      </g>
      <g id="Grupo_18" data-name="Grupo 18">
        <g id="Grupo_17" data-name="Grupo 17">
          <path id="Trazado_11" data-name="Trazado 11" d="M65.5,279.172v10.605h67.091l10.6-10.605Z" fill="#82954b"/>
        </g>
      </g>
      <g id="Grupo_20" data-name="Grupo 20">
        <g id="Grupo_19" data-name="Grupo 19">
          <path id="Trazado_12" data-name="Trazado 12" d="M65.5,300.382v21.21h34.922l21.21-21.21Z" fill="#82954b"/>
        </g>
      </g>
      <g id="Grupo_22" data-name="Grupo 22">
        <g id="Grupo_21" data-name="Grupo 21">
          <path id="Trazado_13" data-name="Trazado 13" d="M211.219,321.592h35.275V286.67Z" fill="#82954b"/>
        </g>
      </g>
      <g id="Grupo_24" data-name="Grupo 24">
        <g id="Grupo_23" data-name="Grupo 23">
          <path id="Trazado_14" data-name="Trazado 14" d="M65.5,215.542v10.6H196.223l10.6-10.6Z" fill="#82954b"/>
        </g>
      </g>
      <g id="Grupo_26" data-name="Grupo 26">
        <g id="Grupo_25" data-name="Grupo 25">
          <path id="Trazado_15" data-name="Trazado 15" d="M234.336,152.759a5.323,5.323,0,0,0-1.377-.995l-21.563-10.6a5.3,5.3,0,0,0-2.372-.559H185.115l1.627.87a15.111,15.111,0,0,1,3.878,2.848l8.441,8.44a15.963,15.963,0,0,1,4.44,9.051h39.886Z" fill="#82954b"/>
        </g>
      </g>
      <g id="Grupo_28" data-name="Grupo 28">
        <g id="Grupo_27" data-name="Grupo 27">
          <path id="Trazado_16" data-name="Trazado 16" d="M203.721,172.415v32.522h42.773V172.415Z" fill="#82954b"/>
        </g>
      </g>
      <g id="Grupo_30" data-name="Grupo 30">
        <g id="Grupo_29" data-name="Grupo 29">
          <path id="Trazado_17" data-name="Trazado 17" d="M92.015,140.6c-15.271,0-26.513,20.891-26.513,31.815,0,10.181,9.12,18.771,21.21,20.785v11.737H97.317V193.2c12.09-2.015,21.21-10.6,21.21-20.785C118.527,161.492,107.286,140.6,92.015,140.6Z" fill="#82954b"/>
        </g>
      </g>
    </g>
    <path id="CUSTOM" d="M434.55,215.54v74.8L402.98,321.6H246.49V215.54Z" fill="#82954b"/>
    <g id="Grupo_31" data-name="Grupo 31">
      <text id="Agrohill" transform="translate(260.096 275.293)" fill="#eadca2" font-size="56.07" font-family="SegoeUI, Segoe UI"><tspan x="0" y="0">Agrohill</tspan></text>
    </g>
    <g id="Grupo_32" data-name="Grupo 32">
      <text id="Quality_Products" data-name="Quality Products" transform="translate(287.928 297.971)" fill="#eadca2" font-size="14.55" font-family="SegoeUI, Segoe UI"><tspan x="0" y="0">Quality Products</tspan></text>
    </g>
  </g>
</svg>
